<?xml version="1.0"?>
<!-- Generated by SVGo -->
<svg width="80.352mm" height="80.352mm"
     viewBox="0.000 0.000 80.352 80.352"
     xmlns="http://www.w3.org/2000/svg" 
     xmlns:xlink="http://www.w3.org/1999/xlink">
<polygon points="67.351,5.001 67.979,5.025 68.603,5.099 69.219,5.222 69.824,5.392 70.413,5.609 70.983,5.872 71.531,6.179 72.054,6.528 72.547,6.917 73.008,7.344 73.435,7.805 73.824,8.298 74.173,8.821 74.480,9.369 74.743,9.939 74.960,10.528 75.130,11.133 75.253,11.749 75.327,12.373 75.352,13.001 75.351,67.351 75.327,67.979 75.253,68.603 75.130,69.219 74.960,69.824 74.743,70.413 74.480,70.983 74.173,71.531 73.824,72.054 73.435,72.547 73.008,73.008 72.547,73.435 72.054,73.824 71.531,74.173 70.983,74.480 70.413,74.743 69.824,74.960 69.219,75.130 68.603,75.253 67.979,75.327 67.351,75.352 13.001,75.351 12.373,75.327 11.749,75.253 11.133,75.130 10.528,74.960 9.939,74.743 9.369,74.480 8.821,74.173 8.298,73.824 7.805,73.435 7.344,73.008 6.917,72.547 6.528,72.054 6.179,71.531 5.872,70.983 5.609,70.413 5.392,69.824 5.222,69.219 5.099,68.603 5.025,67.979 5.000,67.351 5.001,13.001 5.025,12.373 5.099,11.749 5.222,11.133 5.392,10.528 5.609,9.939 5.872,9.369 6.179,8.821 6.528,8.298 6.917,7.805 7.344,7.344 7.805,6.917 8.298,6.528 8.821,6.179 9.369,5.872 9.939,5.609 10.528,5.392 11.133,5.222 11.749,5.099 12.373,5.025 13.001,5.000" style="fill:none;stroke-width:0.050000mm;stroke:red"/>
</svg>
