<?xml version="1.0"?>
<!-- Generated by SVGo -->
<svg width="80.352mm" height="80.352mm"
     viewBox="0.000 0.000 80.352 80.352"
     xmlns="http://www.w3.org/2000/svg" 
     xmlns:xlink="http://www.w3.org/1999/xlink">
<polygon points="67.351,5.001 67.979,5.025 68.603,5.099 69.219,5.222 69.824,5.392 70.413,5.609 70.983,5.872 71.531,6.179 72.054,6.528 72.547,6.917 73.008,7.344 73.435,7.805 73.824,8.298 74.173,8.821 74.480,9.369 74.743,9.939 74.960,10.528 75.130,11.133 75.253,11.749 75.327,12.373 75.352,13.001 75.351,67.351 75.327,67.979 75.253,68.603 75.130,69.219 74.960,69.824 74.743,70.413 74.480,70.983 74.173,71.531 73.824,72.054 73.435,72.547 73.008,73.008 72.547,73.435 72.054,73.824 71.531,74.173 70.983,74.480 70.413,74.743 69.824,74.960 69.219,75.130 68.603,75.253 67.979,75.327 67.351,75.352 13.001,75.351 12.373,75.327 11.749,75.253 11.133,75.130 10.528,74.960 9.939,74.743 9.369,74.480 8.821,74.173 8.298,73.824 7.805,73.435 7.344,73.008 6.917,72.547 6.528,72.054 6.179,71.531 5.872,70.983 5.609,70.413 5.392,69.824 5.222,69.219 5.099,68.603 5.025,67.979 5.000,67.351 5.001,13.001 5.025,12.373 5.099,11.749 5.222,11.133 5.392,10.528 5.609,9.939 5.872,9.369 6.179,8.821 6.528,8.298 6.917,7.805 7.344,7.344 7.805,6.917 8.298,6.528 8.821,6.179 9.369,5.872 9.939,5.609 10.528,5.392 11.133,5.222 11.749,5.099 12.373,5.025 13.001,5.000" style="fill:none;stroke-width:0.050000mm;stroke:red"/>
<polygon points="14.226,52.325 14.226,53.325 13.426,53.325 13.426,56.225 14.226,56.225 14.226,62.225 13.426,62.225 13.426,65.126 14.226,65.126 14.226,66.126 28.026,66.126 28.026,65.126 28.826,65.126 28.826,62.225 28.026,62.225 28.026,56.225 28.826,56.225 28.826,53.325 28.026,53.325 28.026,52.325" style="fill:none;stroke-width:0.050000mm;stroke:red"/>
<polygon points="33.276,52.325 33.276,53.325 32.474,53.325 32.474,56.225 33.276,56.225 33.276,62.225 32.474,62.225 32.474,65.126 33.276,65.126 33.276,66.126 47.075,66.126 47.075,65.126 47.876,65.126 47.876,62.225 47.075,62.225 47.075,56.225 47.876,56.225 47.876,53.325 47.075,53.325 47.075,52.325" style="fill:none;stroke-width:0.050000mm;stroke:red"/>
<polygon points="52.325,52.325 52.325,53.325 51.525,53.325 51.525,56.225 52.325,56.225 52.325,62.225 51.525,62.225 51.525,65.126 52.325,65.126 52.325,66.126 66.126,66.126 66.126,65.126 66.926,65.126 66.926,62.225 66.126,62.225 66.126,56.225 66.926,56.225 66.926,53.325 66.126,53.325 66.126,52.325" style="fill:none;stroke-width:0.050000mm;stroke:red"/>
<polygon points="14.226,33.276 14.226,34.276 13.426,34.276 13.426,37.176 14.226,37.176 14.226,43.176 13.426,43.176 13.426,46.075 14.226,46.075 14.226,47.075 28.026,47.075 28.026,46.075 28.826,46.075 28.826,43.176 28.026,43.176 28.026,37.176 28.826,37.176 28.826,34.276 28.026,34.276 28.026,33.276" style="fill:none;stroke-width:0.050000mm;stroke:red"/>
<polygon points="33.276,33.276 33.276,34.276 32.474,34.276 32.474,37.176 33.276,37.176 33.276,43.176 32.474,43.176 32.474,46.075 33.276,46.075 33.276,47.075 47.075,47.075 47.075,46.075 47.876,46.075 47.876,43.176 47.075,43.176 47.075,37.176 47.876,37.176 47.876,34.276 47.075,34.276 47.075,33.276" style="fill:none;stroke-width:0.050000mm;stroke:red"/>
<polygon points="52.325,33.276 52.325,34.276 51.525,34.276 51.525,37.176 52.325,37.176 52.325,43.176 51.525,43.176 51.525,46.075 52.325,46.075 52.325,47.075 66.126,47.075 66.126,46.075 66.926,46.075 66.926,43.176 66.126,43.176 66.126,37.176 66.926,37.176 66.926,34.276 66.126,34.276 66.126,33.276" style="fill:none;stroke-width:0.050000mm;stroke:red"/>
<polygon points="14.226,14.226 14.226,15.226 13.426,15.226 13.426,18.126 14.226,18.126 14.226,24.126 13.426,24.126 13.426,27.026 14.226,27.026 14.226,28.026 28.026,28.026 28.026,27.026 28.826,27.026 28.826,24.126 28.026,24.126 28.026,18.126 28.826,18.126 28.826,15.226 28.026,15.226 28.026,14.226" style="fill:none;stroke-width:0.050000mm;stroke:red"/>
<polygon points="33.276,14.226 33.276,15.226 32.474,15.226 32.474,18.126 33.276,18.126 33.276,24.126 32.474,24.126 32.474,27.026 33.276,27.026 33.276,28.026 47.075,28.026 47.075,27.026 47.876,27.026 47.876,24.126 47.075,24.126 47.075,18.126 47.876,18.126 47.876,15.226 47.075,15.226 47.075,14.226" style="fill:none;stroke-width:0.050000mm;stroke:red"/>
<polygon points="52.325,14.226 52.325,15.226 51.525,15.226 51.525,18.126 52.325,18.126 52.325,24.126 51.525,24.126 51.525,27.026 52.325,27.026 52.325,28.026 66.126,28.026 66.126,27.026 66.926,27.026 66.926,24.126 66.126,24.126 66.126,18.126 66.926,18.126 66.926,15.226 66.126,15.226 66.126,14.226" style="fill:none;stroke-width:0.050000mm;stroke:red"/>
</svg>
